<svg width="182" height="185" viewBox="0 0 182 185" fill="none" xmlns="http://www.w3.org/2000/svg">
<path opacity="0.5" fill-rule="evenodd" clip-rule="evenodd" d="M108.544 149.07C80.3201 162.57 45.8944 169.914 28.1502 147.9C9.70351 125.015 17.3754 87.7177 36.9344 60.0125C53.382 36.7145 68.7608 40.0196 93.5756 43.8735C122.07 48.2988 168.592 49.6145 169.009 80.5245C169.436 112.277 137.649 135.148 108.544 149.07Z" fill="#A2E8B9" fill-opacity="0.48"/>
<path d="M43 57L90 33L139.5 57V106L90 129L43 106V57Z" fill="white"/>
<path d="M142 55.8503C142 55.6775 141.968 55.5047 141.924 55.3426C141.914 55.2886 141.881 55.2346 141.86 55.1806C141.816 55.0834 141.784 54.9754 141.73 54.8889C141.698 54.8349 141.654 54.7809 141.611 54.7269C141.546 54.6513 141.492 54.5757 141.417 54.5001C141.363 54.446 141.309 54.4028 141.244 54.3596C141.201 54.3272 141.168 54.284 141.114 54.2516C141.082 54.23 141.039 54.2192 141.006 54.1976C140.974 54.176 140.941 54.1544 140.909 54.1328L92.2994 31.1782C91.7917 30.9406 91.1975 30.9406 90.6898 31.1782L75.1672 38.5129C75.1564 38.5237 75.1348 38.5237 75.124 38.5237L58.3806 46.4309C58.3698 46.4309 58.3698 46.4417 58.359 46.4525L42.0802 54.1436C42.0478 54.1652 42.0154 54.1868 41.983 54.2084C41.9506 54.23 41.9074 54.2408 41.875 54.2624C41.8318 54.2948 41.7886 54.338 41.7453 54.3704C41.6805 54.4136 41.6265 54.4569 41.5725 54.5109C41.4969 54.5757 41.4429 54.6513 41.3781 54.7377C41.3349 54.7917 41.2917 54.8457 41.2593 54.8997C41.2052 54.997 41.162 55.0942 41.1296 55.1914C41.108 55.2454 41.0756 55.2994 41.0648 55.3534C41.0324 55.5047 41 55.6775 41 55.8395C41 55.8395 41 55.8395 41 55.8503V107.161C41 107.895 41.4213 108.554 42.0802 108.867L90.6898 131.822C90.7547 131.854 90.8195 131.865 90.8843 131.887C90.9275 131.908 90.9815 131.919 91.0247 131.93C91.1759 131.973 91.338 131.995 91.5 131.995C91.662 131.995 91.8133 131.962 91.9753 131.93C92.0293 131.919 92.0725 131.897 92.1157 131.887C92.1805 131.865 92.2453 131.854 92.3102 131.822L140.92 108.867C141.579 108.554 142 107.884 142 107.161V55.8503ZM75.9449 42.3368L119.542 62.9365L107.757 69.0073L63.6197 48.1484L75.9449 42.3368ZM109.691 72.3128L121.919 66.5336V79.2478L117.036 78.8697C116.529 78.8373 116.021 78.9993 115.632 79.345L109.702 84.638V72.3128H109.691ZM91.5 34.9914L135.681 55.8503L124.533 61.111L80.363 40.2412L91.5 34.9914ZM59.1908 50.244L103.361 71.1138L91.5 76.7201L47.3193 55.8503L59.1908 50.244ZM44.7807 58.8317L89.6096 80.0039V127.134L44.7807 105.961V58.8317ZM138.219 105.961L93.3904 127.134V80.0039L105.91 74.0951V88.8509C105.91 89.5962 106.342 90.266 107.023 90.5792C107.271 90.6872 107.53 90.7412 107.8 90.7412C108.254 90.7412 108.708 90.5792 109.064 90.266L117.544 82.7045L123.669 83.1797C124.198 83.223 124.717 83.0393 125.095 82.6829C125.484 82.3264 125.7 81.8187 125.7 81.3002V64.7513L129.599 62.9041L138.219 58.8317V105.961Z" fill="#FEB11D"/>
</svg>
