<svg width="185" height="178" viewBox="0 0 185 178" fill="none" xmlns="http://www.w3.org/2000/svg">
<path opacity="0.5" fill-rule="evenodd" clip-rule="evenodd" d="M84.282 22.3702C117.037 13.8366 155.156 13.4485 169.618 41.5875C184.653 70.8403 168.99 110.099 142.602 136.169C120.413 158.092 104.708 151.031 79.0698 141.262C49.63 130.045 0.376026 118.222 6.14598 84.1764C12.0732 49.2026 50.5048 31.1701 84.282 22.3702Z" fill="#CAEBF4"/>
<g clip-path="url(#clip0)">
<rect x="43" y="31.4327" width="89" height="60" rx="10" fill="white"/>
<circle cx="123.5" cy="88.9327" r="14.5" fill="white"/>
<path d="M128.665 84.1947L122.502 90.4099L119.262 87.1477C118.542 86.4228 117.367 86.4228 116.636 87.1477C115.916 87.8726 115.916 89.056 116.636 89.7809L121.189 94.365C121.549 94.7274 122.026 94.9087 122.502 94.9087C122.979 94.9087 123.445 94.7274 123.815 94.365L131.291 86.8385C132.011 86.1136 132.011 84.9303 131.291 84.1947C130.56 83.4698 129.395 83.4698 128.665 84.1947Z" fill="#FF63B1"/>
<path d="M134.509 75.8259V39.1425C134.509 34.3345 130.624 30.4327 125.859 30.4327H50.6506C45.8753 30.4327 42 34.3345 42 39.1425V43.1936V55.2828V84.2159C42 89.0238 45.8753 92.9257 50.6506 92.9257H107.329C107.478 93.5973 107.647 94.2582 107.869 94.8872C110.241 101.795 116.711 106.433 123.964 106.433C133.355 106.433 141 98.7357 141 89.2797C141 84.0027 138.586 79.0348 134.509 75.8259ZM50.6506 34.164H125.859C128.591 34.164 130.804 36.3921 130.804 39.1425V41.328H45.7059V39.1425C45.7059 36.3921 47.9188 34.164 50.6506 34.164ZM45.7059 45.0592H130.804V53.4172H45.7059V45.0592ZM45.7059 84.2159V57.1484H130.804V73.5659C130.793 73.5659 130.793 73.5552 130.782 73.5552C128.622 72.6064 126.325 72.116 123.964 72.116C114.593 72.116 106.98 79.7597 106.927 89.1838H50.6506C47.9188 89.1944 45.7059 86.9663 45.7059 84.2159ZM123.964 102.701C118.288 102.701 113.227 99.0769 111.364 93.6612C111.056 92.7764 110.834 91.8383 110.728 90.8255C110.665 90.3458 110.633 89.8234 110.633 89.2797C110.633 81.8812 116.615 75.8579 123.964 75.8579C125.816 75.8579 127.606 76.231 129.3 76.9773C130.105 77.3291 130.867 77.7662 131.598 78.2885C135.166 80.7938 137.294 84.8982 137.294 89.2797C137.294 96.6782 131.312 102.701 123.964 102.701Z" fill="#FF63B1"/>
<path d="M66.4059 66.5511C64.9235 66.5511 63.4835 66.9989 62.2765 67.8304C61.0694 67.0096 59.6294 66.5511 58.1471 66.5511C54.0706 66.5511 50.7565 69.8879 50.7565 73.9923C50.7565 78.0967 54.0706 81.4335 58.1471 81.4335C59.6294 81.4335 61.0694 80.9857 62.2765 80.1542C63.4941 80.9751 64.9235 81.4335 66.4059 81.4335C70.4823 81.4335 73.7965 78.0967 73.7965 73.9923C73.7965 69.8879 70.4823 66.5511 66.4059 66.5511ZM66.4059 77.7022C65.3576 77.7022 64.3624 77.2438 63.6529 76.4549C63.3035 76.0605 62.7953 75.8259 62.2659 75.8259C61.7365 75.8259 61.2388 76.0498 60.8788 76.4549C60.18 77.2438 59.1741 77.7022 58.1259 77.7022C56.0929 77.7022 54.4412 76.0392 54.4412 73.9923C54.4412 71.9455 56.0929 70.2824 58.1259 70.2824C59.1741 70.2824 60.1694 70.7408 60.8788 71.5297C61.5776 72.3186 62.9435 72.3186 63.6424 71.5297C64.3412 70.7408 65.3471 70.2824 66.3953 70.2824C68.4282 70.2824 70.08 71.9455 70.08 73.9923C70.0906 76.0392 68.4388 77.7022 66.4059 77.7022Z" fill="#FF63B1"/>
</g>
<defs>
<clipPath id="clip0">
<rect width="99" height="76" fill="white" transform="translate(42 29.9999)"/>
</clipPath>
</defs>
</svg>
