<svg width="153" height="118" viewBox="0 0 153 118" fill="none" xmlns="http://www.w3.org/2000/svg">
<g clip-path="url(#clip0)">
<rect x="1" y="1.38086" width="137" height="91" rx="10" fill="white"/>
<circle cx="124.5" cy="88.8809" r="22.5" fill="white"/>
<path d="M133.936 83.8126L124.413 93.3807L119.405 88.3587C118.293 87.2427 116.476 87.2427 115.347 88.3587C114.235 89.4747 114.235 91.2964 115.347 92.4124L122.384 99.4695C122.94 100.027 123.676 100.306 124.413 100.306C125.149 100.306 125.869 100.027 126.442 99.4695L137.995 87.8827C139.107 86.7667 139.107 84.945 137.995 83.8126C136.865 82.6966 135.065 82.6966 133.936 83.8126Z" fill="#FF63B1"/>
<path d="M142.969 70.929V14.4558C142.969 7.0541 136.964 1.04736 129.6 1.04736H13.3691C5.98909 1.04736 0 7.0541 0 14.4558V20.6923V39.3034V83.8451C0 91.2468 5.98909 97.2536 13.3691 97.2536H100.964C101.193 98.2875 101.455 99.305 101.798 100.273C105.464 110.908 115.462 118.047 126.671 118.047C141.185 118.047 153 106.198 153 91.6407C153 83.5169 149.269 75.8689 142.969 70.929ZM13.3691 6.79151H129.6C133.822 6.79151 137.242 10.2216 137.242 14.4558V17.8203H5.72727V14.4558C5.72727 10.2216 9.14727 6.79151 13.3691 6.79151ZM5.72727 23.5644H137.242V36.4313H5.72727V23.5644ZM5.72727 83.8451V42.1754H137.242V67.4497C137.225 67.4497 137.225 67.4333 137.209 67.4333C133.871 65.9726 130.32 65.2177 126.671 65.2177C112.189 65.2177 100.424 76.9849 100.342 91.493H13.3691C9.14727 91.5094 5.72727 88.0794 5.72727 83.8451ZM126.671 112.303C117.9 112.303 110.078 106.723 107.198 98.386C106.724 97.0238 106.38 95.5796 106.216 94.0204C106.118 93.2819 106.069 92.4777 106.069 91.6407C106.069 80.2509 115.315 70.9782 126.671 70.9782C129.535 70.9782 132.3 71.5526 134.918 72.7015C136.162 73.243 137.34 73.9159 138.469 74.7201C143.984 78.5769 147.273 84.8955 147.273 91.6407C147.273 103.031 138.027 112.303 126.671 112.303Z" fill="#FF63B1"/>
<path d="M37.7182 56.6509C35.4273 56.6509 33.2018 57.3402 31.3363 58.6203C29.4709 57.3566 27.2454 56.6509 24.9545 56.6509C18.6545 56.6509 13.5327 61.7878 13.5327 68.1064C13.5327 74.4249 18.6545 79.5618 24.9545 79.5618C27.2454 79.5618 29.4709 78.8725 31.3363 77.5924C33.2182 78.8561 35.4273 79.5618 37.7182 79.5618C44.0182 79.5618 49.14 74.4249 49.14 68.1064C49.14 61.7878 44.0182 56.6509 37.7182 56.6509ZM37.7182 73.8177C36.0982 73.8177 34.56 73.112 33.4636 71.8975C32.9236 71.2903 32.1382 70.9292 31.32 70.9292C30.5018 70.9292 29.7327 71.2738 29.1763 71.8975C28.0963 73.112 26.5418 73.8177 24.9218 73.8177C21.78 73.8177 19.2273 71.2574 19.2273 68.1064C19.2273 64.9553 21.78 62.395 24.9218 62.395C26.5418 62.395 28.08 63.1007 29.1763 64.3152C30.2563 65.5297 32.3673 65.5297 33.4473 64.3152C34.5273 63.1007 36.0818 62.395 37.7018 62.395C40.8436 62.395 43.3963 64.9553 43.3963 68.1064C43.4127 71.2574 40.86 73.8177 37.7182 73.8177Z" fill="#FF63B1"/>
</g>
<defs>
<clipPath id="clip0">
<rect width="153" height="117" fill="white" transform="translate(0 0.380859)"/>
</clipPath>
</defs>
</svg>
