<svg width="189" height="139" viewBox="0 0 189 139" fill="none" xmlns="http://www.w3.org/2000/svg">
<path opacity="0.5" fill-rule="evenodd" clip-rule="evenodd" d="M86.676 136.219C52.8368 137.023 15.6426 128.669 8.01051 97.9658C0.0762742 66.0468 24.3153 31.4199 55.9727 12.0873C82.5941 -4.16993 96.2641 6.30063 118.983 21.6821C145.071 39.3445 190.307 62.135 176.892 93.9541C163.111 126.64 121.571 135.39 86.676 136.219Z" fill="#F9C9E1" fill-opacity="0.69"/>
<rect x="45" y="15" width="92" height="65" rx="10" fill="white"/>
<path d="M81 92.5L83.5 78H99L101.5 92.5H112.5L114 101H67L69 92.5H81Z" fill="white"/>
<path d="M127.202 15H54.7977C49.3894 15 45 19.3916 45 24.7807V71.3762C45 76.7654 49.3894 81.1569 54.7977 81.1569H80.6537L79.3506 90.6442H72.8351C68.8573 90.6442 65.6143 93.8817 65.6143 97.8527V101.354C65.6143 102.303 66.3785 103.066 67.3289 103.066H114.661C115.612 103.066 116.376 102.303 116.376 101.354V97.8527C116.376 93.8817 113.143 90.6442 109.155 90.6442H102.64L101.337 81.1569H127.202C132.601 81.1569 137 76.7654 137 71.3762V24.7807C137 19.3916 132.601 15 127.202 15ZM112.957 97.8527V99.6425H69.0435V97.8527C69.0435 95.7694 70.7384 94.0675 72.8351 94.0675H80.8496H101.15H109.165C111.252 94.0675 112.957 95.7596 112.957 97.8527ZM99.181 90.6442H82.819L84.122 81.1569H97.8878L99.181 90.6442ZM133.571 71.3762C133.571 74.8777 130.71 77.7337 127.202 77.7337H99.3868H99.377H82.623H82.6132H54.7977C51.2901 77.7337 48.4292 74.8777 48.4292 71.3762V24.7807C48.4292 21.2792 51.2901 18.4233 54.7977 18.4233H127.202C130.71 18.4233 133.571 21.2792 133.571 24.7807V71.3762Z" fill="#9878CD"/>
<path d="M107.865 35.7706H79.089L78.5796 33.7362C78.0211 31.5356 76.042 30 73.7787 30H66.7146C65.7642 30 65 30.7629 65 31.7116C65 32.6604 65.7642 33.4233 66.7146 33.4233H73.7787C74.4743 33.4233 75.0916 33.8927 75.2581 34.5774L76.2379 38.4212C76.2673 38.5288 76.3163 38.6168 76.3653 38.7049L78.9323 54.2367C76.8062 54.7355 75.219 56.633 75.219 58.9021C75.219 61.5527 77.3744 63.7044 80.0296 63.7044H80.6077C80.4803 64.1348 80.3823 64.5847 80.3823 65.0542C80.3823 67.6852 82.528 69.8272 85.1636 69.8272C87.7991 69.8272 89.9448 67.6852 89.9448 65.0542C89.9448 64.5847 89.8567 64.1348 89.7293 63.7044H96.0194C95.892 64.1348 95.8038 64.5847 95.8038 65.0542C95.8038 67.6852 97.9495 69.8272 100.585 69.8272C103.221 69.8272 105.366 67.6852 105.366 65.0542C105.366 64.5651 105.268 64.1054 105.141 63.6653C105.935 63.5186 106.542 62.8242 106.542 61.983C106.542 61.0343 105.778 60.2714 104.827 60.2714H80.0198C79.2556 60.2714 78.6383 59.6552 78.6383 58.8923C78.6383 58.1294 79.2556 57.5132 80.0198 57.5132H80.9212H104.837C104.955 57.5132 105.063 57.5034 105.161 57.4839C105.2 57.4741 105.229 57.4643 105.268 57.4545C105.337 57.435 105.406 57.4154 105.464 57.3959C105.504 57.3763 105.543 57.3567 105.582 57.3372C105.641 57.3078 105.69 57.2785 105.748 57.2491C105.788 57.2296 105.817 57.2002 105.856 57.1709C105.905 57.1318 105.954 57.0927 105.993 57.0535C106.023 57.0242 106.052 56.9948 106.091 56.9557C106.131 56.9068 106.17 56.8677 106.209 56.8188C106.238 56.7797 106.258 56.7503 106.287 56.7112C106.317 56.6623 106.346 56.6036 106.376 56.5547C106.395 56.5156 106.415 56.4765 106.434 56.4276C106.454 56.3689 106.473 56.3102 106.493 56.2515C106.503 56.2026 106.522 56.1635 106.532 56.1146C106.532 56.1048 106.542 56.095 106.542 56.0852L109.57 37.7463C109.648 37.2475 109.511 36.7487 109.187 36.3575C108.845 35.9956 108.364 35.7706 107.865 35.7706ZM86.5255 65.064C86.5255 65.8073 85.918 66.4137 85.1734 66.4137C84.4288 66.4137 83.8213 65.8073 83.8213 65.064C83.8213 64.3206 84.4288 63.7142 85.1734 63.7142C85.918 63.7142 86.5255 64.3206 86.5255 65.064ZM100.585 66.4137C99.8405 66.4137 99.233 65.8073 99.233 65.064C99.233 64.3206 99.8405 63.7142 100.585 63.7142C101.33 63.7142 101.937 64.3206 101.937 65.064C101.947 65.8073 101.34 66.4137 100.585 66.4137ZM80.9506 45.4927H104.798L104.416 47.8205H81.3327L80.9506 45.4927ZM105.846 39.1939L105.366 42.0694H80.3823L79.912 39.1939H105.846ZM82.3712 54.1095L81.901 51.234H103.848L103.377 54.1095H82.3712Z" fill="#9878CD"/>
</svg>
