<svg width="152" height="152" viewBox="0 0 152 152" fill="none" xmlns="http://www.w3.org/2000/svg">
<path d="M3.00439 39.0788L73.6099 3.0249L147.971 39.0788V112.689L73.6099 147.24L3.00439 112.689V39.0788Z" fill="white"/>
<path d="M151.727 37.3518C151.727 37.0922 151.678 36.8325 151.613 36.5891C151.597 36.508 151.548 36.4268 151.516 36.3457C151.451 36.1996 151.402 36.0374 151.321 35.9076C151.272 35.8264 151.207 35.7453 151.143 35.6641C151.045 35.5505 150.964 35.437 150.85 35.3234C150.769 35.2422 150.688 35.1773 150.591 35.1124C150.526 35.0637 150.477 34.9988 150.396 34.9501C150.347 34.9177 150.283 34.9014 150.234 34.869C150.185 34.8365 150.136 34.8041 150.088 34.7716L77.0642 0.288261C76.3015 -0.0687433 75.409 -0.0687433 74.6463 0.288261L51.3275 11.3067C51.3112 11.3229 51.2788 11.3229 51.2626 11.3229L26.11 23.2014C26.0938 23.2014 26.0938 23.2177 26.0775 23.2339L1.62275 34.7879C1.57406 34.8203 1.52538 34.8528 1.4767 34.8852C1.42802 34.9177 1.36311 34.9339 1.31442 34.9664C1.24951 35.015 1.1846 35.0799 1.11969 35.1286C1.02233 35.1935 0.941193 35.2585 0.860055 35.3396C0.746463 35.437 0.665326 35.5505 0.567961 35.6804C0.503051 35.7615 0.438141 35.8426 0.389459 35.9238C0.308322 36.0698 0.243412 36.2159 0.19473 36.3619C0.162275 36.4431 0.113592 36.5242 0.0973648 36.6053C0.0486824 36.8325 0 37.0922 0 37.3356C0 37.3356 0 37.3356 0 37.3518V114.432C0 115.536 0.632871 116.526 1.62275 116.996L74.6463 151.48C74.7437 151.528 74.841 151.544 74.9384 151.577C75.0033 151.609 75.0845 151.626 75.1494 151.642C75.3766 151.707 75.62 151.739 75.8634 151.739C76.1068 151.739 76.334 151.691 76.5774 151.642C76.6585 151.626 76.7234 151.593 76.7883 151.577C76.8857 151.544 76.9831 151.528 77.0804 151.48L150.104 116.996C151.094 116.526 151.727 115.52 151.727 114.432V37.3518ZM52.4958 17.0512L117.99 47.997L100.286 57.1169L33.9803 25.7816L52.4958 17.0512ZM103.19 62.0825L121.56 53.4008V72.5005L114.225 71.9325C113.462 71.8839 112.7 72.1273 112.116 72.6465L103.207 80.598V62.0825H103.19ZM75.8634 6.01656L142.234 37.3518L125.487 45.2546L59.1329 13.9031L75.8634 6.01656ZM27.327 28.9297L93.6811 60.2812L75.8634 68.7033L9.49306 37.3518L27.327 28.9297ZM5.67961 41.8306L73.0236 73.6364V144.437L5.67961 112.631V41.8306ZM146.047 112.631L78.7032 144.437V73.6364L97.5108 64.76V86.9267C97.5108 88.0464 98.1599 89.0525 99.1822 89.5231C99.5555 89.6854 99.9449 89.7665 100.351 89.7665C101.032 89.7665 101.714 89.5231 102.249 89.0525L114.988 77.6933L124.189 78.4073C124.984 78.4722 125.763 78.1963 126.331 77.6608C126.915 77.1253 127.24 76.3626 127.24 75.5837V50.7232L133.098 47.9483L146.047 41.8306V112.631Z" fill="#FEB11D"/>
</svg>
