<svg width="166" height="160" viewBox="0 0 166 160" fill="none" xmlns="http://www.w3.org/2000/svg">
<rect y="0.918457" width="165.267" height="116.764" rx="10" fill="white"/>
<path d="M64.6698 140.138L69.1607 114.09H97.0045L101.495 140.138H121.256L123.95 155.407H39.5205L43.1133 140.138H64.6698Z" fill="white"/>
<path d="M147.666 0.918457H17.6003C7.88492 0.918457 0 8.80734 0 18.4883V102.191C0 111.872 7.88492 119.761 17.6003 119.761H64.0474L61.7066 136.804H50.0024C42.8567 136.804 37.031 142.62 37.031 149.753V156.043C37.031 157.747 38.4038 159.118 40.111 159.118H125.138C126.845 159.118 128.218 157.747 128.218 156.043V149.753C128.218 142.62 122.41 136.804 115.247 136.804H103.542L101.202 119.761H147.666C157.364 119.761 165.267 111.872 165.267 102.191V18.4883C165.267 8.80734 157.364 0.918457 147.666 0.918457ZM122.075 149.753V152.968H43.1911V149.753C43.1911 146.011 46.2359 142.953 50.0024 142.953H64.3994H100.867H115.264C119.013 142.953 122.075 145.993 122.075 149.753ZM97.3295 136.804H67.937L70.2779 119.761H95.0063L97.3295 136.804ZM159.106 102.191C159.106 108.481 153.967 113.612 147.666 113.612H97.6991H97.6815H67.585H67.5674H17.6003C11.2994 113.612 6.1601 108.481 6.1601 102.191V18.4883C6.1601 12.1983 11.2994 7.06792 17.6003 7.06792H147.666C153.967 7.06792 159.106 12.1983 159.106 18.4883V102.191Z" fill="#9878CD"/>
<path d="M112.929 38.2305H61.2369L60.3217 34.576C59.3185 30.6227 55.7632 27.8643 51.6976 27.8643H39.0078C37.3006 27.8643 35.9277 29.2347 35.9277 30.939C35.9277 32.6433 37.3006 34.0137 39.0078 34.0137H51.6976C52.9472 34.0137 54.056 34.8571 54.3552 36.087L56.1152 42.9919C56.168 43.1852 56.2561 43.3433 56.3441 43.5015L60.9553 71.4024C57.1361 72.2985 54.2848 75.7071 54.2848 79.7833C54.2848 84.5447 58.1569 88.4101 62.9266 88.4101H63.965C63.7362 89.1832 63.5602 89.9914 63.5602 90.8347C63.5602 95.561 67.4146 99.4088 72.1491 99.4088C76.8836 99.4088 80.738 95.561 80.738 90.8347C80.738 89.9914 80.5796 89.1832 80.3508 88.4101H91.6502C91.4214 89.1832 91.263 89.9914 91.263 90.8347C91.263 95.561 95.1174 99.4088 99.8519 99.4088C104.586 99.4088 108.441 95.561 108.441 90.8347C108.441 89.9562 108.265 89.1304 108.036 88.3398C109.462 88.0762 110.553 86.8288 110.553 85.3178C110.553 83.6135 109.18 82.243 107.473 82.243H62.909C61.5361 82.243 60.4273 81.1361 60.4273 79.7657C60.4273 78.3952 61.5361 77.2883 62.909 77.2883H64.5282H107.49C107.702 77.2883 107.895 77.2708 108.071 77.2356C108.142 77.2181 108.194 77.2005 108.265 77.1829C108.388 77.1478 108.511 77.1126 108.617 77.0775C108.687 77.0424 108.758 77.0072 108.828 76.9721C108.934 76.9194 109.022 76.8667 109.127 76.814C109.198 76.7788 109.25 76.7261 109.321 76.6734C109.409 76.6031 109.497 76.5328 109.567 76.4626C109.62 76.4098 109.673 76.3571 109.743 76.2869C109.814 76.199 109.884 76.1287 109.954 76.0409C110.007 75.9706 110.042 75.9179 110.095 75.8476C110.148 75.7598 110.201 75.6543 110.254 75.5665C110.289 75.4962 110.324 75.4259 110.359 75.3381C110.394 75.2327 110.43 75.1272 110.465 75.0218C110.482 74.934 110.518 74.8637 110.535 74.7758C110.535 74.7583 110.553 74.7407 110.553 74.7231L115.991 41.7796C116.132 40.8835 115.886 39.9875 115.305 39.2847C114.689 38.6346 113.827 38.2305 112.929 38.2305ZM74.5955 90.8523C74.5955 92.1876 73.5043 93.2769 72.1667 93.2769C70.8291 93.2769 69.7379 92.1876 69.7379 90.8523C69.7379 89.517 70.8291 88.4277 72.1667 88.4277C73.5043 88.4277 74.5955 89.517 74.5955 90.8523ZM99.8519 93.2769C98.5143 93.2769 97.4231 92.1876 97.4231 90.8523C97.4231 89.517 98.5143 88.4277 99.8519 88.4277C101.19 88.4277 102.281 89.517 102.281 90.8523C102.298 92.1876 101.207 93.2769 99.8519 93.2769ZM64.581 55.695H107.42L106.734 59.8766H65.2674L64.581 55.695ZM109.303 44.3799L108.441 49.5455H63.5602L62.7154 44.3799H109.303ZM67.133 71.174L66.2882 66.0085H105.713L104.868 71.174H67.133Z" fill="#9878CD"/>
</svg>
